<svg width="403" height="978" viewBox="0 0 403 978" fill="none" xmlns="http://www.w3.org/2000/svg">
<path d="M-37.5313 469.983C-38.5729 469.105 -39.5962 468.259 -40.5953 467.433C-47.2425 461.936 -52.8173 457.326 -55.583 450.265C-56.9525 446.738 -57.74 442.771 -57.8238 437.949L-57.8243 437.919L-57.826 437.89C-58.0328 434.242 -57.9679 430.538 -57.9024 426.797C-57.8811 425.581 -57.8598 424.36 -57.8477 423.137C-57.7988 418.202 -57.903 413.255 -58.8398 408.624L-58.8416 408.615C-60.0528 402.801 -62.5505 396.492 -68.4648 393.23L-68.473 393.226C-74.9264 389.719 -83.3093 390.422 -91.3147 392.274C-96.6073 393.499 -102.014 395.305 -106.8 396.904C-109.243 397.721 -111.525 398.483 -113.548 399.087C-115.299 399.608 -117.07 400.164 -118.86 400.726C-122.612 401.903 -126.445 403.106 -130.337 404.074C-136.056 405.495 -141.704 406.352 -147.005 405.817L-147.035 405.814L-147.066 405.812C-148.99 405.696 -150.842 405.217 -152.855 404.689C-155.675 403.782 -158.055 402.337 -160.594 400.794C-161.236 400.405 -161.887 400.009 -162.559 399.614C-165.837 397.686 -169.449 395.889 -174.153 395.623C-179.159 395.298 -185.825 397.663 -191.908 401.567C-198 405.476 -203.784 411.102 -206.984 417.668C-207.071 417.806 -207.125 417.933 -207.159 418.024C-207.19 418.107 -207.213 418.188 -207.229 418.245L-207.273 418.342C-209.57 423.367 -209.808 427.849 -209.54 431.666C-208.658 444.26 -203.381 455.954 -191.593 461.583L-191.561 461.599L-191.528 461.612C-191.36 461.683 -191.137 461.856 -190.852 462.271C-190.572 462.681 -190.321 463.188 -190.017 463.818C-189.468 465.322 -189.197 467.309 -189.056 469.629C-188.965 471.127 -188.932 472.67 -188.898 474.249C-188.878 475.161 -188.858 476.085 -188.826 477.019C-188.743 479.509 -188.577 482.019 -188.079 484.187C-187.586 486.334 -186.715 488.386 -185.03 489.698L-185.023 489.703L-185.016 489.708C-178.781 494.445 -170.698 496.63 -162.944 498.725C-162.329 498.891 -161.715 499.057 -161.105 499.224C-152.65 501.53 -144.75 503.97 -139.15 509.443L-139.143 509.45C-134.95 513.493 -130.262 516.705 -125.397 519.755C-123.777 520.771 -122.147 521.763 -120.507 522.76C-117.181 524.785 -113.816 526.832 -110.42 529.147C-109.48 529.799 -108.6 531.23 -107.754 533.445C-107.013 535.386 -106.387 537.669 -105.735 540.052C-105.66 540.325 -105.585 540.599 -105.509 540.874C-104.787 543.501 -104.011 546.219 -103.009 548.451C-102.031 550.629 -100.688 552.703 -98.6215 553.594C-90.7116 557.024 -81.4373 554.29 -72.8868 549.701C-64.2619 545.073 -55.9318 538.319 -49.6715 532.992L-49.6708 532.991C-44.7298 528.781 -40.2742 523.679 -36.4004 518.101C-30.9049 510.369 -27.3918 501.577 -27.1474 493.079C-26.9014 484.527 -29.9757 476.328 -37.5313 469.983ZM-37.5313 469.983C-37.531 469.983 -37.5308 469.983 -37.5305 469.983L-38.4951 471.128L-37.5323 469.982C-37.532 469.982 -37.5317 469.982 -37.5313 469.983Z" stroke="#FFE7AD" stroke-width="3" stroke-miterlimit="10"/>
<path d="M-46.5583 400.297L-46.5603 400.284C-47.7343 393.036 -50.4555 385.006 -57.7628 380.757C-65.5588 376.185 -75.9663 377.066 -85.9447 379.454C-92.6113 381.05 -99.3878 383.407 -105.317 385.469C-108.264 386.495 -111.002 387.447 -113.413 388.197L-113.421 388.199C-115.325 388.804 -117.266 389.443 -119.236 390.092C-124.042 391.675 -129.022 393.316 -134.072 394.646C-141.174 396.518 -148.252 397.728 -154.871 397.268L-154.897 397.266L-154.922 397.265C-157.397 397.178 -159.797 396.714 -162.255 395.986L-162.265 395.983L-162.275 395.98C-166.045 394.923 -169.177 393.033 -172.496 391.031C-173.148 390.638 -173.808 390.24 -174.482 389.843C-178.521 387.462 -182.923 385.217 -188.689 384.887C-194.756 384.499 -202.894 387.424 -210.384 392.304C-217.886 397.192 -225.009 404.215 -229.008 412.399C-229.094 412.535 -229.145 412.655 -229.175 412.731C-229.199 412.792 -229.218 412.847 -229.229 412.879C-229.234 412.894 -229.237 412.904 -229.24 412.912L-229.328 413.013L-229.419 413.21C-232.282 419.442 -232.592 424.839 -232.27 429.448C-231.468 444.667 -225.233 458.921 -210.874 465.833C-210.095 466.239 -209.642 466.97 -209.001 468.728C-208.437 470.649 -208.279 473.226 -208.312 476.219C-208.332 478.082 -208.422 480.004 -208.514 481.961C-208.572 483.182 -208.63 484.417 -208.672 485.66C-208.779 488.824 -208.779 491.978 -208.33 494.652C-207.888 497.286 -206.957 499.785 -204.914 501.25C-197.318 506.726 -187.351 508.881 -177.762 510.956C-176.837 511.156 -175.916 511.355 -175.001 511.556C-164.404 513.888 -154.56 516.506 -147.915 523.36L-147.908 523.368C-142.624 528.739 -136.679 532.799 -130.56 536.575C-128.664 537.745 -126.76 538.883 -124.853 540.023C-120.561 542.588 -116.254 545.161 -111.986 548.133L-111.98 548.137C-110.761 548.977 -109.682 550.871 -108.696 553.751C-107.82 556.307 -107.111 559.335 -106.377 562.472C-106.304 562.783 -106.231 563.095 -106.157 563.408C-105.355 566.823 -104.5 570.326 -103.355 573.19C-102.238 575.984 -100.693 578.581 -98.2555 579.668L-98.2556 579.668L-98.2465 579.672C-88.5368 583.927 -77.008 580.149 -66.3095 574.072C-55.5599 567.967 -45.1417 559.245 -37.3602 552.731L-37.2895 552.672C-37.2882 552.671 -37.287 552.67 -37.2857 552.669C-30.9463 547.433 -25.5352 540.943 -20.5959 534.156L-20.589 534.147C-13.7768 524.63 -9.28959 513.742 -8.90529 503.214C-8.51884 492.627 -12.2922 482.461 -21.8695 474.603C-22.5176 474.07 -23.1583 473.545 -23.7909 473.026C-32.6471 465.769 -39.9155 459.814 -43.4764 450.795C-45.1546 446.519 -46.0043 441.771 -46.1607 435.873L-46.1611 435.857L-46.1619 435.841C-46.3968 430.974 -46.2217 426.065 -46.046 421.142C-46.0074 420.06 -45.9688 418.978 -45.9345 417.894C-45.7454 411.926 -45.6894 405.965 -46.5583 400.297Z" stroke="#FFE7AD" stroke-width="3" stroke-miterlimit="10"/>
<path d="M-34.284 391.934L-34.2823 391.948C-33.4774 398.655 -33.6616 405.596 -33.9956 412.544C-34.059 413.863 -34.1278 415.181 -34.1965 416.498C-34.4916 422.159 -34.786 427.806 -34.6551 433.433L-34.6549 433.441L-34.6548 433.448C-34.5637 440.246 -33.5233 445.901 -31.6624 450.834C-27.2322 462.189 -18.1246 469.561 -6.78617 478.737L-6.48172 478.984L-6.48087 478.984M-34.284 391.934L-6.285 548.805C9.6157 526.663 14.9726 498.248 -7.42274 480.148L-6.48087 478.984M-34.284 391.934C-35.4434 382.977 -38.5187 373.39 -46.7991 368.268L-46.8105 368.261C-56.0634 362.652 -68.4434 363.662 -80.3611 366.57C-88.5141 368.56 -96.7533 371.527 -103.903 374.102C-107.213 375.294 -110.289 376.402 -113.015 377.289C-115.761 378.168 -118.566 379.121 -121.421 380.09C-126.675 381.874 -132.096 383.714 -137.625 385.257C-146.119 387.627 -154.64 389.221 -162.698 388.722C-165.647 388.53 -168.585 388.085 -171.405 387.263L-171.419 387.258L-171.433 387.254C-175.991 386.023 -179.763 383.741 -183.745 381.331C-184.51 380.868 -185.282 380.401 -186.069 379.935C-190.9 377.078 -196.155 374.395 -203.11 374.012C-210.159 373.624 -219.799 377.14 -228.726 382.997C-237.664 388.86 -246.165 397.249 -250.91 406.987C-250.923 407.008 -250.934 407.027 -250.945 407.044C-250.989 407.118 -251.025 407.188 -251.052 407.243C-251.099 407.34 -251.141 407.441 -251.166 407.501L-251.171 407.513C-251.178 407.53 -251.184 407.545 -251.189 407.557L-251.231 407.605L-251.321 407.801C-254.757 415.253 -255.13 421.57 -254.879 427.08L-254.879 427.083C-254.039 444.776 -246.835 461.867 -230.028 469.945C-229.088 470.474 -228.37 471.488 -227.993 473.555L-227.988 473.583L-227.982 473.611C-227.456 475.973 -227.458 479.159 -227.694 482.825C-227.829 484.936 -228.032 487.095 -228.239 489.289C-228.394 490.935 -228.55 492.6 -228.682 494.281C-228.981 498.106 -229.136 501.885 -228.726 505.048C-228.324 508.155 -227.327 511.069 -224.95 512.67C-215.904 518.849 -204.025 521.005 -192.57 523.085C-191.396 523.298 -190.226 523.51 -189.064 523.726C-176.357 526.086 -164.575 528.851 -156.817 536.914M-34.284 391.934L-155.735 535.88M-6.48087 478.984C5.1131 488.355 9.54893 500.454 9.00252 513.025C8.45893 525.532 2.9959 538.447 -5.06929 549.678L-5.0716 549.681C-10.9704 557.85 -17.4715 565.584 -25.0348 571.943M-6.48087 478.984L-25.0348 571.943M-25.0348 571.943C-25.0335 571.942 -25.0323 571.941 -25.0311 571.94L-26.0015 570.801L-25.0385 571.946C-25.0372 571.945 -25.036 571.944 -25.0348 571.943ZM-25.0348 571.943C-25.2816 572.153 -25.5308 572.366 -25.7824 572.58C-34.8492 580.305 -47.0008 590.659 -59.5764 598.046C-72.4078 605.583 -86.2062 610.348 -97.7548 605.356L-97.7687 605.35L-97.7825 605.344C-100.579 604.067 -102.328 600.962 -103.587 597.549C-104.877 594.054 -105.813 589.766 -106.696 585.562C-106.77 585.209 -106.844 584.856 -106.917 584.504C-107.731 580.617 -108.52 576.844 -109.527 573.673C-110.65 570.137 -111.925 567.768 -113.431 566.732M-25.0348 571.943L-112.586 565.496M-113.431 566.732C-113.43 566.732 -113.429 566.733 -113.428 566.734L-112.586 565.496M-113.431 566.732C-113.432 566.731 -113.433 566.73 -113.434 566.73L-112.586 565.496M-113.431 566.732C-118.417 563.343 -123.419 560.41 -128.388 557.496C-130.937 556.001 -133.478 554.511 -136.003 552.968C-143.395 548.45 -150.521 543.542 -156.817 536.914M-112.586 565.496C-117.612 562.08 -122.693 559.1 -127.69 556.169C-137.765 550.261 -147.496 544.554 -155.735 535.88M-156.817 536.914C-156.816 536.915 -156.815 536.916 -156.814 536.917L-155.735 535.88M-156.817 536.914C-156.818 536.913 -156.819 536.912 -156.82 536.91L-155.735 535.88" stroke="#FFE7AD" stroke-width="3" stroke-miterlimit="10"/>
<path d="M-22.0102 383.573L-22.0108 383.568C-23.1346 373.195 -26.3164 361.746 -35.9965 355.644L-35.9975 355.644C-46.5787 348.986 -60.935 350.129 -74.8001 353.54C-84.3734 355.895 -94.0253 359.423 -102.341 362.463C-106.085 363.832 -109.558 365.101 -112.63 366.12L-112.637 366.122C-115.254 367.004 -117.929 367.938 -120.65 368.889C-127.264 371.199 -134.154 373.606 -141.164 375.584C-151.039 378.371 -160.991 380.255 -170.434 379.776L-170.441 379.776C-173.898 379.616 -177.493 379.084 -180.711 378.156L-180.724 378.153L-180.737 378.149C-186.154 376.692 -190.63 374.004 -195.29 371.204C-196.169 370.676 -197.054 370.145 -197.954 369.616C-203.566 366.32 -209.604 363.26 -217.546 362.876C-225.655 362.427 -236.794 366.536 -247.156 373.367C-257.523 380.202 -267.393 389.945 -272.952 401.161C-273.138 401.419 -273.236 401.654 -273.285 401.773L-273.293 401.792C-273.301 401.811 -273.307 401.826 -273.312 401.837L-273.414 401.953L-273.504 402.149C-277.51 410.816 -277.949 418.05 -277.767 424.465L-277.767 424.477L-277.766 424.489C-276.866 444.935 -268.833 464.49 -249.543 473.72L-249.531 473.726L-249.518 473.732C-248.481 474.205 -247.664 475.552 -247.235 478.061L-247.233 478.07C-246.73 480.901 -246.865 484.693 -247.279 489.009C-247.518 491.505 -247.837 494.069 -248.16 496.666C-248.399 498.588 -248.64 500.529 -248.853 502.474C-249.344 506.957 -249.669 511.352 -249.34 515.005C-249.018 518.581 -248.032 521.91 -245.448 523.693L-245.438 523.7L-245.427 523.707C-239.643 527.554 -232.843 529.901 -225.697 531.588C-219.981 532.938 -213.961 533.882 -208.012 534.815C-206.538 535.046 -205.069 535.277 -203.609 535.512C-188.743 537.914 -174.951 540.886 -166.126 550.356C-158.818 558.242 -150.442 563.993 -141.783 569.25C-138.96 570.964 -136.121 572.618 -133.279 574.274C-127.346 577.731 -121.399 581.196 -115.555 585.231L-115.55 585.234C-114.683 585.828 -113.86 586.828 -113.087 588.268C-112.317 589.7 -111.644 591.48 -111.033 593.531C-109.923 597.259 -109.072 601.692 -108.198 606.247C-108.107 606.721 -108.016 607.196 -107.924 607.673C-106.961 612.667 -105.935 617.735 -104.474 621.841C-103.045 625.854 -101.042 629.428 -97.8093 630.81C-84.4815 636.614 -68.3794 630.823 -53.357 621.792C-39.257 613.316 -25.614 601.678 -15.2772 592.86C-14.5235 592.217 -13.7873 591.589 -13.0698 590.979L-13.0697 590.979C-4.28014 583.496 3.43208 574.379 10.2995 565.103L10.3055 565.095L10.3113 565.087C19.6309 552.139 26.0684 537.197 26.7861 522.695C27.5071 508.126 22.4421 494.063 8.89703 483.111L8.89065 483.105C-4.38192 472.492 -14.8696 463.991 -19.85 450.867L-19.8511 450.864C-22.0295 445.162 -23.2627 438.604 -23.2887 430.896L-23.2888 430.883C-23.3679 424.382 -22.8945 417.829 -22.4189 411.244C-22.3201 409.877 -22.2213 408.508 -22.1272 407.138C-21.583 399.211 -21.2035 391.27 -22.0102 383.573Z" stroke="#FFE7AD" stroke-width="3" stroke-miterlimit="10"/>
<path d="M-9.73858 375.205L-9.73956 375.194C-10.8314 363.384 -14.3904 350.11 -25.1776 343.281C-37.1553 335.52 -53.4474 336.827 -69.2407 340.788C-79.9614 343.477 -90.7745 347.487 -100.145 350.962C-104.589 352.61 -108.709 354.138 -112.341 355.347L-112.345 355.349C-115.555 356.429 -118.843 357.584 -122.192 358.76C-129.491 361.324 -137.084 363.991 -144.817 366.215C-156.073 369.451 -167.445 371.688 -178.267 371.231L-178.274 371.23L-178.282 371.23C-182.233 371.103 -186.235 370.47 -190.151 369.442C-196.35 367.814 -201.462 364.737 -206.767 361.543C-207.764 360.944 -208.767 360.339 -209.786 359.74C-216.17 355.985 -223.026 352.516 -232.085 352.14C-241.253 351.63 -253.892 356.33 -265.673 364.153C-277.505 372.01 -288.757 383.203 -295.047 396.032L-295.114 396.17L-295.152 396.318C-295.157 396.335 -295.166 396.364 -295.261 396.55L-295.274 396.575C-295.343 396.711 -295.463 396.944 -295.555 397.233C-300.112 406.825 -300.592 415.219 -300.356 422.388L-300.356 422.401C-299.414 445.322 -290.546 467.578 -268.682 478.092C-267.291 478.815 -266.363 480.37 -266.049 483.127L-266.044 483.163L-266.038 483.199C-265.502 486.477 -265.754 490.862 -266.349 495.827C-266.699 498.749 -267.153 501.768 -267.612 504.819C-267.935 506.97 -268.261 509.138 -268.555 511.299C-269.254 516.441 -269.756 521.461 -269.476 525.611C-269.201 529.678 -268.145 533.412 -265.214 535.35L-265.207 535.355C-258.63 539.644 -250.874 542.191 -242.711 543.973C-236.214 545.391 -229.373 546.341 -222.605 547.281C-220.883 547.521 -219.165 547.759 -217.459 548.005C-200.468 550.45 -184.689 553.596 -174.731 564.414C-166.412 573.554 -156.825 580.116 -146.883 586.096C-143.673 588.026 -140.44 589.889 -137.2 591.755C-130.349 595.702 -123.468 599.666 -116.712 604.327L-116.708 604.331C-115.693 605.025 -114.743 606.198 -113.862 607.874C-112.986 609.54 -112.225 611.612 -111.543 613.991C-110.28 618.392 -109.335 623.651 -108.37 629.021C-108.289 629.473 -108.208 629.926 -108.126 630.378C-107.083 636.161 -105.984 642.004 -104.403 646.715C-103.612 649.075 -102.678 651.219 -101.528 652.957C-100.378 654.695 -98.957 656.11 -97.1642 656.875C-89.5648 660.154 -81.1724 660.07 -72.5887 657.887C-64.0113 655.705 -55.1496 651.405 -46.5104 646.123C-31.3193 636.833 -16.5906 624.359 -5.07123 614.602C-3.49885 613.27 -1.98629 611.989 -0.540492 610.774C9.62881 602.28 18.4399 591.905 26.2522 580.981C36.8271 566.315 44.2332 549.278 45.0886 532.752C45.9475 516.156 40.1872 500.132 24.5669 487.738C9.61726 475.659 -2.12451 466.061 -7.61748 451.271L-7.62071 451.262L-7.62405 451.253C-10.1132 444.797 -11.4061 437.457 -11.5043 428.684L-11.5045 428.672C-11.6522 420.861 -11.0505 413.001 -10.4466 405.113C-10.3635 404.027 -10.2804 402.941 -10.1992 401.855C-9.53037 392.909 -8.9927 383.947 -9.73858 375.205Z" stroke="#FFE7AD" stroke-width="3" stroke-miterlimit="10"/>
<path d="M-14.4916 330.8L-14.4966 330.797C-27.8562 322.067 -46.1141 323.501 -63.8606 327.966C-76.1473 331.057 -88.5103 335.698 -99.1501 339.692C-103.896 341.474 -108.298 343.127 -112.198 344.456L-112.202 344.457C-115.808 345.696 -119.511 347.026 -123.292 348.383C-131.417 351.3 -139.901 354.346 -148.55 356.901C-161.197 360.636 -174.016 363.26 -186.211 362.825C-190.889 362.608 -195.269 362.119 -199.538 360.998L-199.545 360.996C-206.607 359.177 -212.431 355.677 -218.455 352.056C-219.505 351.425 -220.561 350.79 -221.631 350.16C-228.782 345.948 -236.423 342.037 -246.476 341.527L-246.488 341.527C-256.688 341.085 -270.795 346.334 -284.009 355.089C-297.268 363.873 -309.903 376.366 -317.068 390.756L-317.138 390.897L-317.177 391.05C-317.182 391.067 -317.191 391.096 -317.286 391.282L-317.299 391.307C-317.368 391.443 -317.488 391.677 -317.58 391.966C-322.707 402.771 -323.254 412.085 -323.086 420.165L-323.086 420.175L-323.085 420.184C-322.223 445.749 -312.383 470.574 -287.922 482.361L-287.903 482.371L-287.884 482.379C-286.369 483.058 -285.482 484.838 -284.985 488.195C-284.476 491.939 -284.871 496.933 -285.652 502.554C-286.107 505.834 -286.677 509.224 -287.251 512.644C-287.665 515.107 -288.081 517.587 -288.46 520.053C-289.35 525.853 -290.013 531.486 -289.787 536.104C-289.566 540.621 -288.471 544.731 -285.259 546.763C-277.897 551.427 -269.183 554.13 -259.998 555.981C-252.803 557.432 -245.23 558.375 -237.73 559.309C-235.669 559.565 -233.613 559.822 -231.571 560.087C-212.455 562.576 -194.717 565.93 -183.756 578.106C-174.428 588.498 -163.629 595.935 -152.434 602.672C-148.704 604.916 -144.948 607.074 -141.188 609.233C-133.596 613.594 -125.987 617.964 -118.549 623.077L-118.545 623.079C-117.381 623.874 -116.307 625.22 -115.322 627.128C-114.342 629.026 -113.5 631.385 -112.75 634.089C-111.359 639.105 -110.337 645.109 -109.294 651.228C-109.21 651.721 -109.126 652.215 -109.042 652.709C-107.919 659.281 -106.737 665.91 -105.009 671.252C-104.144 673.928 -103.122 676.349 -101.859 678.308C-100.596 680.268 -99.0371 681.852 -97.0693 682.709L-97.0681 682.709C-88.5805 686.395 -79.1758 686.269 -69.5314 683.757C-59.894 681.248 -49.9191 676.334 -40.1848 670.308C-23.3276 659.874 -6.968 645.958 5.89514 635.016C7.87755 633.33 9.77692 631.714 11.5823 630.193L11.5831 630.192C22.9807 620.573 32.8837 608.95 41.6522 596.649C53.482 580.266 61.8617 561.201 62.8903 542.68C63.9229 524.086 57.5326 506.099 39.9607 492.124C23.3723 478.856 10.333 467.887 4.06674 451.426C1.39787 444.32 -0.0857407 436.078 0.001083 426.269L0.00117857 426.259L0.00113666 426.249C-0.0349376 417.759 0.671102 409.247 1.37887 400.715C1.4952 399.312 1.6116 397.909 1.72474 396.506C2.52325 386.599 3.15784 376.685 2.41057 366.965C1.46887 353.538 -2.46102 338.731 -14.4916 330.8Z" stroke="#FFE7AD" stroke-width="3" stroke-miterlimit="10"/>
<path d="M-338.921 385.353L-338.852 385.214C-331.004 369.335 -317.054 355.477 -302.388 345.717C-287.767 335.986 -272.157 330.146 -260.898 330.652C-249.725 331.153 -241.265 335.472 -233.342 340.144C-232.151 340.846 -230.975 341.554 -229.806 342.258C-223.144 346.269 -216.689 350.155 -208.851 352.146C-204.004 353.249 -199.068 353.958 -193.918 354.14C-180.345 354.553 -166.106 351.576 -152.078 347.391C-142.698 344.592 -133.501 341.283 -124.681 338.111C-120.281 336.528 -115.975 334.979 -111.787 333.544C-107.495 332.069 -102.641 330.229 -97.4022 328.243C-85.6489 323.789 -71.9588 318.6 -58.3333 315.15C-38.6548 310.166 -18.4304 308.604 -3.67823 318.432C9.46052 327.086 13.7712 343.719 14.6812 358.583C14.6812 358.584 14.6813 358.584 14.6813 358.585L13.1873 358.677L-338.921 385.353ZM-338.921 385.353L-338.954 385.482M-338.921 385.353L-338.954 385.482M-338.954 385.482C-338.957 385.489 -338.962 385.5 -338.97 385.516C-338.996 385.57 -339.032 385.632 -339.094 385.742C-339.149 385.837 -339.23 385.978 -339.304 386.128C-339.361 386.242 -339.426 386.387 -339.481 386.554C-345.178 398.569 -345.917 408.939 -345.693 417.826L-345.693 417.837M-338.954 385.482L-345.693 417.837M-345.693 417.837C-344.77 446.145 -333.967 473.54 -307.194 486.362L-307.187 486.365M-345.693 417.837L-307.187 486.365M-307.187 486.365C-305.483 487.17 -304.332 489.266 -303.951 492.906L-303.95 492.913M-307.187 486.365L-303.95 492.913M-303.95 492.913L-303.949 492.92M-303.95 492.913L-303.949 492.92M-303.949 492.92C-303.467 497.13 -304.007 502.723 -304.975 508.986C-305.535 512.607 -306.218 516.346 -306.907 520.116C-307.414 522.89 -307.924 525.68 -308.39 528.45C-309.473 534.895 -310.296 541.131 -310.123 546.229C-309.954 551.218 -308.815 555.707 -305.346 557.898L-305.341 557.901M-303.949 492.92L-305.341 557.901M-305.341 557.901C-297.189 563.007 -287.522 565.91 -277.318 567.857C-269.339 569.38 -260.939 570.333 -252.618 571.277C-250.312 571.539 -248.011 571.8 -245.728 572.072C-224.488 574.604 -204.754 578.13 -192.655 591.661C-182.249 603.366 -170.241 611.613 -157.78 619.057C-153.671 621.511 -149.53 623.869 -145.381 626.232C-136.885 631.071 -128.356 635.928 -120.004 641.667L-120 641.67M-305.341 557.901L-120 641.67M-120 641.67C-118.686 642.567 -117.487 644.086 -116.398 646.227M-120 641.67L-116.398 646.227M-116.398 646.227C-115.314 648.357 -114.389 651.003 -113.571 654.031M-116.398 646.227L-113.571 654.031M-113.571 654.031C-112.06 659.625 -110.962 666.322 -109.843 673.139M-113.571 654.031L-109.843 673.139M-109.843 673.139C-109.749 673.716 -109.654 674.293 -109.559 674.871M-109.843 673.139L-109.559 674.871M-109.559 674.871C-108.349 682.224 -107.072 689.626 -105.179 695.582M-109.559 674.871L-105.179 695.582M-105.179 695.582C-104.231 698.564 -103.108 701.253 -101.718 703.421M-105.179 695.582L-101.718 703.421M-101.718 703.421C-100.329 705.588 -98.6171 707.324 -96.4605 708.251L-101.718 703.421Z" stroke="#FFE7AD" stroke-width="3" stroke-miterlimit="10"/>
<path d="M7.13119 305.758L7.12947 305.757C-8.94652 294.887 -31.171 296.616 -52.8442 302.121C-67.6792 305.889 -82.5901 311.528 -95.4156 316.378C-101.342 318.619 -106.823 320.692 -111.645 322.334L-111.655 322.337C-116.161 323.906 -120.802 325.601 -125.55 327.334C-135.271 330.884 -145.441 334.597 -155.821 337.728C-171.243 342.381 -186.934 345.68 -201.889 345.159L-201.902 345.159C-207.593 345.01 -213.027 344.331 -218.237 342.879L-218.256 342.874L-218.276 342.869C-226.938 340.701 -234.079 336.423 -241.431 332.019C-242.696 331.261 -243.968 330.499 -245.255 329.743C-253.962 324.631 -263.237 319.907 -275.462 319.342C-287.779 318.772 -304.891 325.204 -320.95 335.911C-337.056 346.649 -352.385 361.873 -361.046 379.244L-361.068 379.29L-361.088 379.336C-361.16 379.51 -361.234 379.642 -361.351 379.847L-361.36 379.862C-361.472 380.057 -361.621 380.318 -361.765 380.657C-368.062 393.918 -368.873 405.234 -368.593 414.929L-368.593 414.933C-367.627 445.719 -355.988 475.811 -326.644 489.915C-324.644 490.952 -323.465 493.321 -323.046 497.491L-323.045 497.496C-322.564 502.131 -323.233 508.314 -324.378 515.232C-325.039 519.219 -325.838 523.346 -326.643 527.503C-327.238 530.58 -327.837 533.674 -328.386 536.741C-329.66 543.861 -330.64 550.734 -330.51 556.33C-330.382 561.803 -329.181 566.678 -325.415 568.988C-316.474 574.537 -305.848 577.63 -294.617 579.662C-285.87 581.244 -276.662 582.197 -267.536 583.141C-264.959 583.407 -262.387 583.673 -259.835 583.952C-236.456 586.51 -214.727 590.209 -201.55 605.164C-190.136 618.12 -176.884 627.208 -163.139 635.405C-158.731 638.034 -154.289 640.563 -149.84 643.096C-140.355 648.496 -130.842 653.911 -121.582 660.341L-121.572 660.348C-120.106 661.348 -118.782 663.041 -117.59 665.415C-116.402 667.778 -115.396 670.711 -114.511 674.064C-112.871 680.272 -111.696 687.713 -110.502 695.278C-110.404 695.897 -110.306 696.517 -110.208 697.137C-108.917 705.28 -107.557 713.467 -105.517 720.054C-104.495 723.351 -103.283 726.317 -101.78 728.707C-100.278 731.095 -98.4268 732.999 -96.0962 734.017L-96.0924 734.018C-85.8044 738.477 -74.3754 738.24 -62.6233 735.06C-50.8779 731.881 -38.7056 725.738 -26.8209 718.238C-6.88016 705.653 12.4697 689.102 27.8468 675.948C30.7871 673.433 33.5822 671.042 36.2083 668.827C50.3388 656.929 62.289 642.679 72.9751 627.904C87.3796 608.012 97.7039 584.821 99.0273 562.295C100.355 539.692 92.6077 517.82 71.0135 500.824C50.8425 484.915 35.4123 471.61 28.2421 451.682L28.2395 451.675L28.2368 451.667C25.0734 443.149 23.3359 433.21 23.2784 421.288L23.2783 421.282C23.1787 410.51 24.1934 399.689 25.2139 388.805C25.3085 387.796 25.4032 386.787 25.497 385.777C26.5996 373.907 27.5856 361.973 26.9566 350.154C26.1981 333.682 21.5154 315.513 7.13119 305.758Z" stroke="#FFE7AD" stroke-width="3" stroke-miterlimit="10"/>
<path d="M-111.238 311.424L-111.24 311.425C-116.345 313.196 -121.608 315.119 -126.997 317.088C-137.396 320.887 -148.264 324.858 -159.363 328.236C-176.178 333.355 -193.318 337.043 -209.71 336.614C-215.829 336.359 -221.792 335.71 -227.664 334.169L-227.672 334.167L-227.679 334.165C-237.175 331.778 -244.953 327.113 -252.927 322.33C-254.322 321.494 -255.723 320.653 -257.14 319.821C-266.603 314.264 -276.661 309.163 -290.003 308.606C-303.303 308.037 -321.913 315.057 -339.411 326.741C-356.956 338.457 -373.667 355.049 -383.072 373.978L-383.094 374.023L-383.113 374.069C-383.358 374.657 -383.497 374.955 -383.672 375.154L-383.808 375.31L-383.897 375.497C-390.778 389.988 -391.656 402.235 -391.444 412.85L-391.444 412.859C-390.558 446.287 -377.945 478.946 -346.005 494.324L-345.995 494.329L-345.985 494.333C-343.786 495.351 -342.433 498.036 -342.113 502.613L-342.112 502.626L-342.11 502.64C-341.659 507.739 -342.481 514.524 -343.825 522.093C-344.597 526.442 -345.521 530.944 -346.451 535.477C-347.144 538.856 -347.841 542.252 -348.481 545.614C-349.962 553.395 -351.118 560.889 -351.052 566.978C-350.986 572.938 -349.747 578.199 -345.724 580.665L-345.721 580.668C-335.996 586.591 -324.421 589.852 -312.176 591.965C-302.707 593.599 -292.744 594.561 -282.862 595.514C-279.978 595.792 -277.102 596.07 -274.247 596.363C-248.761 598.982 -225.061 602.885 -210.813 619.138C-198.392 633.344 -183.964 643.275 -168.968 652.197C-163.962 655.176 -158.911 658.033 -153.851 660.894C-143.69 666.641 -133.491 672.409 -123.539 679.23C-121.933 680.349 -120.494 682.232 -119.206 684.847C-117.922 687.454 -116.839 690.683 -115.889 694.364C-114.137 701.154 -112.887 709.28 -111.618 717.536C-111.508 718.245 -111.399 718.956 -111.289 719.666C-109.911 728.591 -108.457 737.551 -106.258 744.758C-105.158 748.366 -103.851 751.604 -102.232 754.211C-100.613 756.816 -98.6235 758.882 -96.1224 759.99L-96.1225 759.99L-96.1138 759.993C-84.9411 764.857 -72.503 764.577 -59.6913 761.07C-46.886 757.565 -33.6004 750.808 -20.6201 742.565C1.01082 728.828 22.0123 710.816 38.739 696.47C42.0751 693.608 45.2412 690.893 48.2083 688.386L48.2104 688.385C63.5641 675.366 76.7458 659.993 88.3941 643.833C104.054 622.222 115.352 597.001 116.83 572.465C118.313 547.851 109.9 523.988 86.2891 505.351C64.4444 487.979 47.8853 473.692 39.8038 451.972L39.8026 451.969C36.3271 442.694 34.5332 431.978 34.5412 419.134C34.6113 407.608 35.7828 396.061 36.9598 384.461C37.0937 383.141 37.2277 381.82 37.3601 380.499C38.6533 367.597 39.7973 354.64 39.2268 341.769C38.5004 323.871 33.5617 303.73 18.0625 293.249C0.606504 281.418 -23.5784 283.273 -47.2019 289.281C-63.6024 293.452 -80.0652 299.725 -94.1566 305.095C-100.384 307.467 -106.148 309.664 -111.238 311.424Z" stroke="#FFE7AD" stroke-width="3" stroke-miterlimit="10"/>
<path d="M-412.555 410.474C-412.838 398.949 -411.785 385.896 -404.589 370.61L-412.555 410.474ZM-412.555 410.474C-411.494 446.215 -398.311 480.781 -364.492 497.096L-412.555 410.474ZM-110.967 300.39L-110.972 300.392C-116.39 302.295 -121.984 304.362 -127.717 306.481C-139.021 310.658 -150.866 315.035 -162.971 318.748C-181.181 324.333 -199.773 328.344 -217.548 327.808C-224.171 327.587 -230.552 326.836 -236.978 325.317C-247.28 322.752 -255.757 317.682 -264.426 312.498C-265.925 311.601 -267.43 310.702 -268.951 309.811C-279.215 303.798 -290.09 298.289 -304.42 297.731C-318.83 297.169 -338.909 304.74 -357.82 317.37C-376.776 330.03 -394.834 347.954 -405.113 368.443L-405.136 368.49L-405.157 368.539C-405.402 369.127 -405.541 369.425 -405.716 369.625L-405.854 369.783L-405.943 369.973C-413.269 385.536 -414.338 398.84 -414.052 410.511L-414.051 410.519C-412.982 446.543 -399.672 481.781 -365.151 498.44C-362.654 499.689 -361.413 502.516 -360.931 507.524C-360.512 513.086 -361.472 520.469 -362.991 528.677C-363.864 533.394 -364.9 538.28 -365.942 543.195C-366.72 546.864 -367.501 550.549 -368.221 554.191C-369.886 562.623 -371.196 570.724 -371.189 577.285C-371.185 580.568 -370.852 583.553 -370.018 586.04C-369.179 588.541 -367.803 590.621 -365.671 591.923L-365.666 591.926C-355.152 598.293 -342.617 601.744 -329.345 603.943C-319.106 605.639 -308.332 606.601 -297.643 607.556C-294.49 607.837 -291.345 608.118 -288.223 608.417C-260.599 611.062 -234.899 615.135 -219.572 632.817L-219.571 632.818C-206.142 648.274 -190.472 659.044 -174.194 668.719C-168.887 671.874 -163.533 674.903 -158.171 677.936C-147.021 684.243 -135.839 690.57 -124.978 698.08C-123.219 699.303 -121.652 701.364 -120.256 704.217C-118.864 707.06 -117.694 710.58 -116.671 714.59C-114.782 721.994 -113.441 730.861 -112.081 739.856C-111.966 740.616 -111.851 741.378 -111.735 742.14C-110.261 751.854 -108.707 761.589 -106.35 769.403C-105.17 773.314 -103.769 776.814 -102.032 779.62C-100.297 782.425 -98.1651 784.633 -95.4882 785.796L-95.4864 785.797C-83.4004 791.028 -69.9489 790.681 -56.0851 786.833C-42.2276 782.986 -27.8498 775.613 -13.798 766.637C9.06835 752.031 31.2853 733.032 49.1854 717.725C53.2712 714.231 57.132 710.929 60.7243 707.916C77.4606 693.883 91.5981 677.131 104.316 659.467C121.232 636.137 133.533 608.852 135.184 582.321C136.84 555.712 127.768 529.922 102.086 509.844C78.4523 491.153 60.7529 475.626 52.158 452.237C48.4797 442.04 46.5116 430.669 46.4472 416.785C46.4522 403.954 47.7404 391.145 49.0339 378.283C49.1393 377.235 49.2448 376.186 49.3497 375.136C50.7375 361.246 52.0084 347.298 51.4959 333.377C50.7999 314.038 45.6156 292.204 28.7357 280.76C9.88899 267.834 -16.2588 269.817 -41.8142 276.343C-59.5558 280.873 -77.3476 287.695 -92.5537 293.526C-99.2721 296.102 -105.486 298.485 -110.967 300.39Z" stroke="#FFE7AD" stroke-width="3" stroke-miterlimit="10"/>
<path d="M39.6728 268.256L39.6709 268.255C19.4442 254.365 -8.66507 256.474 -36.1721 263.503C-55.4814 268.438 -74.829 275.898 -91.2995 282.248C-98.316 284.954 -104.81 287.458 -110.557 289.48C-116.616 291.6 -122.877 293.914 -129.298 296.287C-141.24 300.701 -153.732 305.318 -166.496 309.272C-186.085 315.34 -206.095 319.769 -225.242 319.385C-232.378 319.197 -239.416 318.358 -246.24 316.735C-257.329 314 -266.446 308.54 -275.76 302.961C-277.378 301.992 -279.003 301.02 -280.644 300.057C-291.68 293.585 -303.373 287.669 -318.82 287.118C-334.214 286.556 -355.792 294.715 -376.141 308.322C-396.537 321.96 -415.976 341.252 -426.999 363.3L-427.022 363.346L-427.042 363.393C-427.139 363.627 -427.267 363.9 -427.413 364.212L-427.421 364.23C-427.552 364.509 -427.699 364.822 -427.821 365.111C-435.849 381.76 -436.983 395.983 -436.623 408.693C-435.632 447.345 -421.218 485.266 -384.398 502.958C-381.73 504.339 -380.229 507.46 -379.856 512.789C-379.436 518.777 -380.534 526.747 -382.243 535.607C-383.219 540.664 -384.37 545.904 -385.529 551.177C-386.406 555.168 -387.287 559.177 -388.099 563.139C-389.963 572.239 -391.435 580.974 -391.463 588.04C-391.477 591.574 -391.131 594.781 -390.239 597.444C-389.342 600.124 -387.862 602.336 -385.572 603.709L-385.569 603.711C-374.274 610.452 -360.791 614.071 -346.504 616.353C-335.564 618.099 -324.056 619.075 -312.63 620.043C-309.146 620.338 -305.67 620.633 -302.22 620.948C-287.403 622.304 -273.032 624.048 -260.277 627.863C-247.538 631.673 -236.507 637.522 -228.292 647.022L-228.291 647.022C-213.785 663.788 -196.909 675.367 -179.383 685.734C-173.672 689.111 -167.91 692.351 -162.14 695.596C-150.136 702.346 -138.095 709.118 -126.395 717.196C-124.484 718.521 -122.793 720.758 -121.293 723.844C-119.798 726.919 -118.547 730.728 -117.457 735.062C-115.44 743.08 -114.023 752.691 -112.587 762.434C-112.468 763.237 -112.35 764.041 -112.231 764.845C-110.676 775.349 -109.039 785.87 -106.533 794.315C-105.28 798.542 -103.789 802.319 -101.939 805.346C-100.09 808.371 -97.8209 810.744 -94.9732 811.997L-94.9671 812C-81.9972 817.635 -67.5373 817.246 -52.6158 813.069C-37.7005 808.893 -22.2135 800.903 -7.07434 791.177C17.7343 775.237 41.8245 754.486 61.1329 737.853C65.3766 734.198 69.3894 730.741 73.128 727.578C91.0937 712.419 106.322 694.419 120.13 675.508L120.133 675.504C138.307 650.453 151.547 621.107 153.353 592.566C155.164 563.945 145.462 536.193 117.897 514.594C92.4667 494.579 73.5138 477.954 64.4079 452.899C60.5473 442.044 58.2499 429.646 58.3718 414.723L58.3719 414.71L58.3718 414.697C58.2402 400.317 59.6761 386.006 61.1165 371.651C61.1764 371.054 61.2363 370.457 61.2962 369.86C62.7909 354.935 64.2195 339.962 63.7655 324.993C63.2211 304.053 57.5246 280.555 39.6728 268.256Z" stroke="#FFE7AD" stroke-width="3" stroke-miterlimit="10"/>
<path d="M-233.207 310.718L-233.206 310.718C-212.612 311.141 -191.146 306.388 -170.178 299.87C-156.342 295.57 -142.813 290.532 -129.91 285.728C-123.228 283.241 -116.714 280.815 -110.412 278.587C-104.325 276.424 -97.4538 273.753 -90.0317 270.868C-72.3598 263.999 -51.5647 255.916 -30.7996 250.583C-1.34465 243.018 28.7276 240.782 50.3449 255.766M-233.207 310.718L49.4934 256.997M-233.207 310.718C-240.852 310.564 -248.294 309.622 -255.798 307.905M-233.207 310.718L-256.14 309.362M50.3449 255.766C50.3453 255.766 50.3459 255.767 50.3463 255.767L49.4934 256.997M50.3449 255.766C50.3444 255.765 50.3437 255.765 50.3432 255.765L49.4934 256.997M50.3449 255.766C69.5792 269.029 75.5216 294.222 76.035 316.604M49.4934 256.997C68.1086 269.832 74.0278 294.373 74.5386 316.639M76.035 316.604C76.035 316.604 76.0349 316.603 76.0349 316.602L74.5386 316.639M76.035 316.604L74.5386 316.639M76.035 316.604C76.431 332.628 74.809 348.597 73.0712 364.508C72.9574 365.55 72.8432 366.591 72.729 367.632C71.0949 382.525 69.4662 397.37 69.3546 412.309C69.3056 428.287 71.661 441.467 75.8339 453.08C85.5915 479.935 105.828 497.924 132.911 519.138C162.552 542.306 172.981 571.978 171.046 602.577C169.116 633.096 154.902 664.473 135.411 691.312L135.41 691.313C120.767 711.462 104.324 730.851 85.1274 747.137L85.1259 747.139C81.0386 750.597 76.6416 754.388 71.9847 758.404C51.3801 776.172 25.6885 798.327 -0.769205 815.383C-16.9966 825.844 -33.5932 834.443 -49.5664 838.943C-65.5456 843.445 -81.0135 843.875 -94.8668 837.836C-97.9033 836.513 -100.324 833.987 -102.296 830.75C-104.27 827.511 -105.856 823.461 -107.187 818.921C-109.847 809.85 -111.564 798.538 -113.191 787.236C-113.319 786.349 -113.446 785.462 -113.573 784.576C-115.072 774.118 -116.552 763.796 -118.679 755.186C-119.832 750.522 -121.16 746.421 -122.755 743.109C-124.356 739.786 -126.17 737.372 -128.233 735.944C-140.698 727.349 -153.538 720.124 -166.339 712.92C-172.604 709.395 -178.859 705.875 -185.056 702.202C-203.851 691.065 -221.937 678.612 -237.449 660.599C-246.2 650.448 -257.984 644.23 -271.604 640.208C-285.24 636.181 -300.619 634.382 -316.479 633.004C-320.191 632.681 -323.931 632.382 -327.68 632.082C-339.896 631.103 -352.201 630.117 -363.905 628.306C-379.213 625.937 -393.66 622.135 -405.772 614.989L-405.781 614.984C-408.181 613.548 -409.722 611.213 -410.645 608.373C-411.563 605.549 -411.904 602.139 -411.861 598.368C-411.775 590.829 -410.149 581.487 -408.1 571.736C-407.209 567.495 -406.243 563.197 -405.281 558.917C-404.011 553.262 -402.747 547.637 -401.671 542.212C-399.786 532.708 -398.55 524.139 -398.938 517.686C-399.336 512.021 -400.905 508.463 -403.768 507.11L-403.778 507.105C-443.192 488.141 -458.579 447.655 -459.492 406.364C-459.907 392.859 -458.703 377.704 -450.091 359.825L-450.083 359.81L-450.075 359.794C-449.915 359.48 -449.783 359.197 -449.639 358.892C-449.497 358.589 -449.345 358.263 -449.159 357.899C-437.322 334.363 -416.542 313.676 -394.744 299.031C-372.99 284.416 -349.943 275.634 -333.491 276.26M74.5386 316.639L-333.548 277.756M-333.491 276.26L-333.548 277.756M-333.491 276.26C-333.491 276.26 -333.492 276.26 -333.492 276.26L-333.548 277.756M-333.491 276.26C-316.989 276.875 -304.511 283.234 -292.708 290.163C-291.039 291.143 -289.385 292.132 -287.738 293.118C-277.681 299.137 -267.829 305.033 -255.798 307.905M-333.548 277.756C-315.168 278.441 -301.867 286.405 -288.534 294.387C-278.483 300.405 -268.415 306.433 -256.14 309.362M-255.798 307.905C-255.8 307.904 -255.803 307.904 -255.805 307.903L-256.14 309.362M-255.798 307.905C-255.796 307.906 -255.794 307.906 -255.792 307.906L-256.14 309.362" stroke="#FFE7AD" stroke-width="3" stroke-miterlimit="10"/>
<path d="M88.3045 308.21L88.3045 308.211C88.6427 325.286 86.8631 342.282 85.0463 359.161L84.9134 360.395C83.137 376.888 81.3727 393.268 81.5042 409.669L81.5043 409.68L81.5042 409.691C81.3886 426.597 83.8004 440.559 88.2872 452.932C98.6777 481.324 120.057 500.554 148.931 523.089L148.933 523.091C180.523 547.84 191.581 579.472 189.474 612.067C187.372 644.58 172.184 677.986 151.437 706.545C135.839 728.069 118.301 748.711 97.7283 766.006C93.0431 769.95 87.9812 774.307 82.6075 778.932C60.7733 797.724 33.7924 820.946 6.03066 838.916C-11.276 850.119 -28.9689 859.338 -45.9963 864.182C-63.0289 869.026 -79.509 869.523 -94.2745 863.118C-97.4831 861.74 -100.042 859.076 -102.126 855.644C-104.213 852.208 -105.889 847.901 -107.293 843.064C-110.099 833.397 -111.897 821.324 -113.603 809.248C-113.735 808.314 -113.867 807.38 -113.998 806.447C-115.572 795.26 -117.126 784.209 -119.38 774.993C-120.599 770.006 -122.009 765.618 -123.707 762.074C-125.411 758.518 -127.351 755.928 -129.567 754.395C-142.871 745.233 -156.587 737.548 -170.259 729.888C-176.939 726.145 -183.608 722.408 -190.213 718.508C-210.272 706.664 -229.565 693.403 -246.085 674.14L-246.086 674.139C-255.378 663.273 -267.933 656.655 -282.456 652.409C-296.996 648.158 -313.41 646.31 -330.338 644.919C-334.314 644.592 -338.321 644.29 -342.336 643.987C-355.362 643.006 -368.479 642.018 -380.956 640.144C-397.291 637.69 -412.697 633.696 -425.597 626.108C-428.14 624.614 -429.767 622.163 -430.735 619.163C-431.696 616.181 -432.038 612.569 -431.966 608.566C-431.824 600.562 -430.021 590.621 -427.764 580.226C-426.799 575.783 -425.755 571.274 -424.715 566.778C-423.3 560.666 -421.891 554.578 -420.693 548.713C-418.618 538.553 -417.245 529.366 -417.637 522.422L-417.638 522.401L-417.638 522.38C-417.812 516.262 -419.509 512.538 -422.683 510.942C-464.676 490.697 -480.761 447.63 -481.856 403.739L-481.856 403.738C-482.204 389.325 -480.937 373.258 -471.768 354.176C-471.521 353.589 -471.161 352.883 -470.836 352.246L-470.822 352.219C-470.821 352.217 -470.82 352.215 -470.819 352.213C-458.169 327.182 -436.009 305.128 -412.77 289.504C-389.577 273.912 -365.028 264.539 -347.519 265.229C-347.519 265.229 -347.519 265.23 -347.519 265.23L-347.578 266.725C-327.893 267.404 -313.741 275.885 -299.527 284.402C-288.855 290.797 -278.149 297.213 -265.041 300.362L88.3045 308.21ZM88.3045 308.21C87.803 284.121 81.4911 257.381 61.2823 243.261L61.2779 243.258C38.2812 227.312 6.24876 229.675 -25.1413 237.725C-47.361 243.424 -69.5958 252.074 -88.4435 259.406C-96.2488 262.443 -103.473 265.253 -109.875 267.535L88.3045 308.21Z" stroke="#FFE7AD" stroke-width="3" stroke-miterlimit="10"/>
<path d="M164.153 527.595L164.151 527.594C142.151 510.457 124.313 495.153 111.965 476.764C99.6549 458.431 92.7504 436.947 92.8196 407.366C92.8674 390.292 94.765 373.267 96.6722 356.155C96.7618 355.352 96.8513 354.548 96.9408 353.744C98.9308 335.85 100.836 317.863 100.492 299.804C100.018 274.273 93.4551 245.84 71.8617 230.761L71.0045 231.988L71.8615 230.76C47.541 213.783 13.5139 216.313 -19.8535 224.904C-43.4702 230.985 -67.0971 240.205 -87.0919 248.008C-95.3764 251.24 -103.037 254.23 -109.816 256.652C-117.122 259.243 -124.692 262.079 -132.463 264.99C-151.023 271.943 -170.735 279.327 -190.764 284.841C-219.154 292.655 -247.91 296.622 -274.444 290.248L-274.446 290.247C-288.132 286.98 -299.306 280.308 -310.671 273.522C-312.545 272.403 -314.424 271.281 -316.32 270.171C-329.664 262.358 -343.74 255.22 -362.412 254.55C-381.167 253.878 -407.658 264.069 -432.562 280.99C-457.513 297.942 -481.159 321.842 -494.121 348.946C-503.868 369.253 -505.327 386.387 -504.922 401.6C-503.9 448.126 -486.84 493.753 -442.518 515.286C-440.192 516.426 -438.632 518.714 -437.777 522.254C-436.917 525.812 -436.826 530.438 -437.306 535.878C-438.264 546.751 -441.451 560.386 -444.706 574.223L-444.829 574.744C-448.027 588.342 -451.263 602.097 -452.349 613.284C-452.898 618.948 -452.909 624.065 -452.036 628.226C-451.162 632.39 -449.352 635.803 -446.092 637.708C-432.439 645.706 -416.1 649.882 -398.753 652.425C-385.53 654.363 -371.622 655.363 -357.804 656.356C-353.508 656.665 -349.22 656.973 -344.965 657.309C-326.968 658.728 -309.508 660.637 -294.046 665.115C-278.6 669.587 -265.249 676.594 -255.384 688.141L-255.383 688.141C-237.855 708.649 -217.35 722.782 -196.021 735.395C-188.93 739.588 -181.767 743.604 -174.593 747.625C-160.122 755.738 -145.605 763.876 -131.534 773.554C-129.164 775.19 -127.097 777.959 -125.285 781.751C-123.48 785.531 -121.983 790.211 -120.69 795.528C-118.291 805.394 -116.645 817.239 -114.98 829.215C-114.849 830.157 -114.718 831.1 -114.586 832.043C-112.79 844.916 -110.902 857.778 -107.954 868.069C-106.478 873.218 -104.718 877.797 -102.527 881.444C-100.338 885.088 -97.654 887.907 -94.2891 889.359C-78.6389 896.166 -61.1427 895.618 -43.0434 890.435C-24.9492 885.254 -6.13644 875.411 12.2648 863.464C41.637 844.393 70.1733 819.812 93.2506 799.934C99.0729 794.919 104.548 790.203 109.601 785.95L109.604 785.947C131.526 767.384 150.276 745.352 166.827 722.45C188.757 692.108 204.908 656.606 207.176 622.066C209.449 587.444 197.758 553.851 164.153 527.595Z" stroke="#FFE7AD" stroke-width="3" stroke-miterlimit="10"/>
</svg>
