<svg width="267" height="868" viewBox="0 0 267 868" fill="none" xmlns="http://www.w3.org/2000/svg">
<path d="M527.877 332.774C523.542 328.501 519.697 324.187 516.545 319.355M527.877 332.774C547.226 351.451 576.295 363.598 602.165 374.408C607.026 376.439 611.773 378.423 616.322 380.394C621.385 382.603 627.191 384.935 633.419 387.437C667.323 401.056 713.774 419.716 721.405 450.948L516.545 319.355M527.877 332.774L528.927 331.712C528.926 331.711 528.924 331.709 528.922 331.708M527.877 332.774L528.916 331.701C528.918 331.703 528.92 331.705 528.922 331.708M516.545 319.355C511.301 311.402 508.882 302.967 506.467 294.548C503.216 283.213 499.974 271.908 489.859 261.847L516.545 319.355ZM528.922 331.708C524.63 327.476 520.87 323.25 517.8 318.545L517.796 318.539C512.691 310.795 510.34 302.607 507.922 294.184C507.501 292.718 507.077 291.244 506.637 289.764C503.688 279.846 500.004 269.832 490.914 260.791L490.906 260.783C481.642 251.705 463.403 244.298 442.713 240.779C421.964 237.25 398.422 237.571 378.375 244.251L378.234 244.299L378.105 244.373C378.026 244.418 377.932 244.453 377.675 244.536L377.644 244.546C377.446 244.61 377.137 244.709 376.813 244.878M528.922 331.708C540.243 342.633 554.993 351.337 570.578 358.883C581.236 364.043 592.199 368.624 602.684 373.005C607.556 375.041 612.323 377.033 616.909 379.02L616.913 379.021C621.902 381.198 627.662 383.512 633.863 386.003C647.733 391.575 663.809 398.034 678.407 405.823C699.491 417.072 718.177 431.424 722.863 450.605L722.864 450.611C727.02 467.942 717.159 484.483 705.678 497.274M376.813 244.878L264.849 410.886C267.573 421.35 273.393 431.232 280.462 440.774C286.001 448.251 292.368 455.597 298.683 462.883C300.421 464.888 302.155 466.888 303.866 468.885C311.83 478.179 319.332 487.427 324.748 496.948C330.158 506.456 333.436 516.148 333.053 526.335C332.373 543.627 335.827 559.548 340.312 575.202C341.804 580.408 343.404 585.566 345.006 590.732C348.243 601.173 351.492 611.649 353.888 622.635L353.888 622.64C354.28 624.409 354.053 626.584 353.223 629.167C352.396 631.737 351.009 634.595 349.219 637.674C345.902 643.378 341.317 649.649 336.658 656.02C336.281 656.535 335.904 657.05 335.527 657.566C330.521 664.42 325.539 671.35 322.267 677.592C320.628 680.717 319.381 683.737 318.785 686.545C318.188 689.353 318.221 692.059 319.284 694.455L319.285 694.456C323.966 704.977 333.016 712.894 344.502 718.906C355.988 724.917 370.025 729.085 384.888 732.058C410.632 737.208 439.117 738.82 461.556 740.089C465.015 740.285 468.331 740.473 471.471 740.664L471.472 740.664C491.217 741.853 511.397 739.972 531.139 736.507C557.542 732.028 583.09 722.201 601.111 706.584C619.19 690.918 629.679 669.421 625.792 641.87C622.181 615.735 619.825 594.625 629.087 574.412C633.124 565.711 639.355 557.015 648.548 548.271L648.555 548.265L648.562 548.258C656.395 540.611 664.961 533.583 673.529 526.553C674.937 525.398 676.346 524.242 677.751 523.084C687.676 514.903 697.429 506.592 705.678 497.274M376.813 244.878C362.004 250.1 352.922 257.914 345.625 265.277L345.618 265.284L345.612 265.291C322.867 288.845 309.381 319.425 321.853 350.905L321.861 350.926L321.87 350.946C322.752 352.994 321.87 355.464 319.22 358.924C316.206 362.764 311.162 366.928 305.211 371.294C301.739 373.84 298.044 376.395 294.323 378.969C291.649 380.818 288.961 382.677 286.332 384.549C280.117 388.975 274.308 393.424 270.287 397.717C266.353 401.917 263.688 406.433 264.849 410.885L376.813 244.878ZM376.813 244.878C376.851 244.864 376.888 244.851 376.925 244.838L377.435 246.252M376.813 244.878C376.768 244.901 376.723 244.926 376.677 244.952L377.435 246.252M705.678 497.274C705.68 497.273 705.681 497.271 705.682 497.27L704.554 496.271L705.676 497.277C705.677 497.276 705.677 497.275 705.678 497.274ZM377.435 246.252C377.669 246.118 377.909 246.04 378.149 245.963C378.388 245.886 378.628 245.808 378.862 245.673L323.248 350.365C311.086 319.665 324.15 289.686 346.697 266.336C353.928 259.039 362.852 251.372 377.435 246.252Z" stroke="#FFE7AD" stroke-width="3" stroke-miterlimit="10"/>
<path d="M465.656 766.962C461.677 766.72 457.441 766.488 453.002 766.244C399.325 763.297 315.932 758.717 297.584 717.266M465.656 766.962L313.465 530.91M465.656 766.962C487.476 768.192 509.74 766.147 531.612 762.515M465.656 766.962L531.612 762.515M297.584 717.266C293.407 707.988 305.278 691.966 317.057 676.068C327.941 661.379 338.745 646.796 336.738 637.739C334.033 625.34 330.318 613.522 326.645 601.836C319.41 578.819 312.337 556.318 313.465 530.91M297.584 717.266L296.211 717.861C296.212 717.863 296.213 717.864 296.213 717.865M297.584 717.266L296.215 717.87C296.215 717.868 296.214 717.867 296.213 717.865M313.465 530.91L311.965 530.83C311.965 530.83 311.965 530.831 311.965 530.832C311.965 530.833 311.965 530.833 311.965 530.834L313.465 530.91ZM296.213 717.865C301.369 729.51 311.423 738.242 324.22 744.85C337.018 751.459 352.679 756.007 369.261 759.23C397.351 764.69 428.344 766.391 452.958 767.742C457.389 767.985 461.614 768.217 465.578 768.458L465.585 768.458C487.552 769.696 509.932 767.637 531.872 763.994L531.876 763.993C561.196 759.046 589.558 748.239 609.559 730.955C629.619 713.621 641.248 689.774 636.947 659.019L636.946 659.015C632.843 630.163 630.541 606.958 640.859 584.807L640.862 584.801C645.302 575.149 652.202 565.701 662.307 555.947L662.312 555.941L662.318 555.936C671.028 547.351 680.725 539.457 690.481 531.515C691.688 530.532 692.896 529.549 694.103 528.563C705.038 519.636 715.89 510.542 725.168 500.335C738.009 486.283 749.189 467.781 744.642 448.851C739.637 427.489 718.95 411.561 695.537 399.114C679.325 390.495 661.472 383.385 646.11 377.267C639.247 374.534 632.881 371.999 627.381 369.616C622.058 367.304 616.51 364.99 610.837 362.623C599.45 357.873 587.559 352.913 575.978 347.344C558.652 339.012 542.213 329.401 529.552 317.309C524.769 312.696 520.683 307.796 517.052 302.622L296.213 717.865ZM531.612 762.515C589.925 752.677 643.906 719.596 635.46 659.213M531.612 762.515L635.46 659.213M635.46 659.213C631.362 630.399 628.969 606.767 639.497 584.165L635.46 659.213ZM360.821 221.198C360.773 221.222 360.725 221.247 360.679 221.274L361.437 222.574L360.926 221.16C360.891 221.173 360.856 221.185 360.821 221.198Z" stroke="#FFE7AD" stroke-width="3" stroke-miterlimit="10"/>
<path d="M275.21 335.551C278.774 331.329 280.399 327.495 279.086 323.901C264.379 286.928 280.575 250.678 307.87 222.546L275.21 335.551ZM275.21 335.551C268.895 343.085 256.251 351.386 243.539 359.732C223.994 372.563 204.288 385.501 207.177 395.918M275.21 335.551L292.379 535.413C293.774 507.041 271.472 482.382 249.071 457.613C231.128 437.773 213.121 417.863 207.177 395.918M205.73 396.302C209.147 408.915 216.436 420.791 225.296 432.254C232.199 441.184 240.122 449.944 247.985 458.639C250.208 461.097 252.426 463.55 254.616 465.999C264.584 477.154 273.97 488.272 280.712 499.748C287.447 511.211 291.489 522.939 290.88 535.326C289.827 556.708 294.102 576.215 299.678 595.37C301.464 601.505 303.377 607.586 305.293 613.678C309.382 626.679 313.488 639.731 316.41 653.466L316.413 653.479C316.904 655.692 316.594 658.395 315.531 661.573C314.473 664.739 312.711 668.253 310.45 672.028C306.267 679.015 300.499 686.703 294.648 694.5C294.169 695.14 293.688 695.78 293.208 696.42C286.909 704.826 280.656 713.304 276.532 720.93C274.469 724.747 272.899 728.419 272.136 731.817C271.372 735.216 271.39 738.457 272.652 741.308L272.653 741.312C278.343 754.072 289.432 763.632 303.555 770.858C317.677 778.085 334.956 783.043 353.244 786.546C383.931 792.425 417.718 794.249 444.609 795.701C449.754 795.979 454.648 796.243 459.219 796.52C483.687 798.019 508.257 795.548 532.13 791.516C564.246 786.11 595.472 774.261 617.481 755.31C639.549 736.309 652.333 710.166 647.388 676.447C642.79 644.862 640.304 619.601 651.913 595.502L651.916 595.495L651.92 595.488C656.789 585.097 664.347 574.666 675.35 563.912L675.355 563.907C685.24 554.16 696.24 545.328 707.281 536.464C708.305 535.641 709.33 534.818 710.354 533.994C722.391 524.313 734.349 514.495 744.656 503.396C759.123 488.039 771.369 467.842 766.646 446.854L766.645 446.852C761.335 423.42 738.581 405.92 712.775 392.224C695.11 382.848 675.672 375.091 658.917 368.406C651.16 365.31 643.977 362.444 637.813 359.753L637.804 359.749C632.053 357.283 626.049 354.811 619.902 352.28C607.304 347.092 594.107 341.658 581.259 335.525C562.166 326.412 544.039 315.841 530.154 302.463L530.144 302.454C524.814 297.407 520.219 292.101 516.555 286.292L516.544 286.275L516.532 286.257C510.216 276.823 507.323 266.805 504.358 256.537C503.848 254.772 503.336 252.998 502.804 251.22C499.197 239.156 494.701 227.009 483.583 216.049C472.412 205.038 450.203 196.105 424.98 191.886C399.696 187.656 371.047 188.105 346.809 196.167L346.764 196.182L346.719 196.2C346.453 196.308 346.229 196.371 345.928 196.453L345.91 196.458C345.62 196.537 345.26 196.636 344.835 196.805C326.644 203.222 315.463 212.6 306.79 221.495L306.787 221.498C279.309 249.819 262.676 286.665 277.683 324.422C278.687 327.198 277.552 330.439 274.058 334.58L274.055 334.583C270.188 339.197 263.783 344.188 256.283 349.399C251.962 352.401 247.365 355.419 242.741 358.454C239.325 360.697 235.893 362.949 232.546 365.213C224.743 370.491 217.483 375.778 212.467 380.865C209.959 383.409 207.946 385.967 206.72 388.513C205.487 391.073 205.011 393.706 205.73 396.302ZM205.73 396.302C205.729 396.3 205.729 396.299 205.729 396.297L207.177 395.918M205.73 396.302C205.73 396.303 205.731 396.305 205.731 396.306L207.177 395.918" stroke="#FFE7AD" stroke-width="3" stroke-miterlimit="10"/>
<path d="M648.275 350.345L648.276 350.346C654.806 353.161 662.373 356.159 670.54 359.396C688.989 366.706 710.501 375.231 730.037 385.592C758.177 400.517 782.926 419.59 788.668 445.071M648.275 350.345L787.203 445.387M648.275 350.345C641.765 347.546 634.954 344.743 627.976 341.871C614.496 336.323 600.392 330.518 586.627 323.989C565.77 314.095 545.896 302.626 530.547 288.094C524.91 282.588 519.78 276.856 515.565 270.395L515.56 270.388L515.556 270.381C508.644 260.034 505.498 249.12 502.288 237.98C501.727 236.032 501.163 234.077 500.577 232.118C496.658 219.005 491.761 205.848 479.566 193.935C467.454 182.077 443.265 172.381 415.759 167.799C388.191 163.206 356.953 163.692 330.561 172.509L330.517 172.523L330.473 172.541C329.714 172.849 329.217 173.037 328.751 173.075L328.558 173.091L328.375 173.156C308.494 180.172 296.389 190.323 286.8 199.984L286.793 199.99C256.797 230.608 238.72 270.588 255.034 311.718L255.038 311.729L255.043 311.74C256.262 314.678 254.994 318.359 251.025 322.781L251.015 322.791L251.006 322.801C246.681 327.804 239.571 333.202 231.28 338.825C226.517 342.055 221.453 345.301 216.362 348.565C212.572 350.995 208.767 353.434 205.06 355.884C196.447 361.575 188.444 367.268 182.912 372.741C180.145 375.478 177.929 378.225 176.574 380.954C175.212 383.699 174.679 386.518 175.449 389.294L175.45 389.299C179.269 402.922 187.312 415.764 197.068 428.174C204.614 437.771 213.253 447.19 221.832 456.544C224.337 459.275 226.837 462.001 229.303 464.724C240.25 476.811 250.553 488.866 257.945 501.309C265.329 513.738 269.751 526.458 269.053 539.887C267.81 563.253 272.431 584.527 278.534 605.406C280.569 612.368 282.762 619.266 284.959 626.179C289.375 640.073 293.812 654.031 297.035 668.711C297.55 671.152 297.174 674.124 295.979 677.602C294.787 681.068 292.826 684.913 290.323 689.038C285.71 696.642 279.378 705.008 272.961 713.488C272.409 714.219 271.855 714.95 271.302 715.682C264.364 724.863 257.487 734.114 252.94 742.432C250.665 746.594 248.934 750.591 248.082 754.284C247.229 757.976 247.23 761.483 248.572 764.561L248.576 764.57C254.739 778.454 266.832 788.844 282.272 796.689C297.712 804.535 316.625 809.901 336.649 813.682C370.023 819.984 406.742 821.921 436.029 823.466C441.874 823.775 447.423 824.068 452.59 824.376L452.593 824.377C479.275 825.925 506.066 823.507 532.136 819.064C567.047 813.199 601.084 800.369 625.101 779.752C649.179 759.082 663.167 730.585 657.809 693.662C652.961 659.324 650.303 632.213 662.694 605.728L662.696 605.725C667.968 594.385 676.192 583.209 688.112 571.685C698.857 561.409 710.678 552.063 722.533 542.69C723.883 541.623 725.232 540.556 726.581 539.487C739.753 529.047 752.81 518.448 764.144 506.458M648.275 350.345L763.052 505.42M788.668 445.071L787.203 445.387M788.668 445.071C788.668 445.07 788.668 445.07 788.667 445.069L787.203 445.387M788.668 445.071C793.787 467.665 779.965 489.848 764.144 506.458M787.203 445.387C792.145 467.193 778.818 488.868 763.052 505.42M764.144 506.458C764.146 506.457 764.147 506.455 764.148 506.454L763.052 505.42M764.144 506.458L763.052 505.42" stroke="#FFE7AD" stroke-width="3" stroke-miterlimit="10"/>
<path d="M658.717 340.708L658.722 340.71C665.76 343.731 673.93 346.95 682.757 350.427C702.699 358.284 725.992 367.461 747.145 378.654C777.614 394.777 804.362 415.425 810.422 443.084C810.423 443.084 810.423 443.085 810.423 443.085L808.956 443.393C814.331 467.246 799.68 490.648 782.549 508.468L658.717 340.708ZM658.717 340.708C651.785 337.757 644.524 334.799 637.079 331.765C622.382 325.777 606.965 319.495 591.928 312.4C569.301 301.723 547.736 289.292 531.162 273.473C525.009 267.562 519.578 261.381 514.816 254.473C507.294 243.272 503.853 231.392 500.348 219.291C499.742 217.201 499.134 215.103 498.504 213.002C494.238 198.793 488.936 184.567 475.797 171.803C462.614 158.995 436.507 148.53 406.775 143.579C376.983 138.618 343.221 139.136 314.547 148.599L314.5 148.615L314.454 148.633C313.695 148.941 313.197 149.13 312.732 149.168L312.536 149.184L312.351 149.249C291.048 156.843 277.782 167.779 267.289 178.447L267.284 178.453C235.059 211.554 215.266 254.446 232.866 298.942C234.155 302.344 232.643 306.057 228.438 310.994C223.653 316.383 215.858 322.198 206.806 328.244C201.607 331.716 196.08 335.21 190.528 338.719C186.389 341.335 182.236 343.961 178.193 346.593C168.801 352.709 160.089 358.812 154.064 364.659C151.051 367.583 148.64 370.507 147.163 373.403C145.678 376.314 145.09 379.295 145.907 382.224L145.908 382.23C150.073 396.928 158.858 410.767 169.519 424.137C177.746 434.453 187.159 444.57 196.51 454.619C199.269 457.585 202.024 460.545 204.74 463.502C216.697 476.519 227.946 489.509 235.997 502.93C244.038 516.336 248.827 530.077 247.987 544.61L247.987 544.612C246.552 569.965 251.586 593.059 258.221 615.717C260.381 623.096 262.705 630.408 265.032 637.734C269.876 652.98 274.738 668.285 278.194 684.365C278.76 687.031 278.341 690.273 277.03 694.057C275.723 697.827 273.574 702.008 270.838 706.491C265.788 714.762 258.859 723.871 251.844 733.09C251.25 733.871 250.655 734.654 250.06 735.436C242.484 745.406 234.984 755.439 230.028 764.437C227.549 768.938 225.666 773.251 224.742 777.223C223.817 781.195 223.822 784.949 225.28 788.227L225.281 788.229C231.979 803.227 245.104 814.429 261.867 822.874C278.63 831.32 299.159 837.075 320.888 841.121C356.25 847.707 395.045 849.807 426.344 851.501C433.494 851.888 440.252 852.254 446.488 852.647C475.428 854.477 504.409 851.647 532.898 846.776C570.603 840.453 607.511 826.638 633.539 804.382C659.629 782.074 674.769 751.281 668.758 711.283C663.417 674.225 660.815 645.025 674.26 616.603C680.189 604.269 688.85 592.359 701.66 579.842C713.552 568.338 726.653 557.962 739.786 547.561C740.858 546.712 741.931 545.862 743.003 545.012C757.18 533.768 771.276 522.391 783.637 509.51L658.717 340.708Z" stroke="#FFE7AD" stroke-width="3" stroke-miterlimit="10"/>
<path d="M832.443 441.303L832.443 441.301C825.951 411.594 797.208 389.372 764.405 372.021C741.378 359.841 716.004 349.896 694.368 341.417C685.136 337.799 676.585 334.447 669.187 331.303C661.441 327.996 653.313 324.684 644.973 321.287C629.447 314.961 613.188 308.337 597.297 300.89C572.904 289.46 549.593 276.185 531.566 259.322C524.887 252.997 518.906 246.17 513.858 238.824C505.741 226.793 502.05 214.016 498.292 201.008C497.639 198.75 496.985 196.485 496.305 194.215C491.725 178.931 486.017 163.637 471.803 149.919C457.678 136.264 429.59 125.035 397.574 119.721C365.498 114.396 329.147 114.952 298.319 125.169L298.273 125.185L298.228 125.203C297.906 125.334 297.519 125.473 297.093 125.625L297.075 125.632C296.682 125.772 296.255 125.925 295.878 126.077C272.895 134.039 258.716 145.742 247.331 157.404C212.598 192.792 191.379 239.038 210.227 286.44C211.553 290.1 210.03 294.296 205.412 299.439C200.232 305.21 191.762 311.431 181.926 317.896C176.315 321.585 170.35 325.296 164.355 329.025C159.823 331.845 155.274 334.675 150.848 337.514C140.647 344.057 131.193 350.589 124.668 356.857C121.406 359.991 118.804 363.124 117.219 366.228C115.625 369.347 115.013 372.535 115.915 375.663L115.916 375.667C120.483 391.373 130.019 406.177 141.577 420.495C150.427 431.459 160.531 442.219 170.576 452.915C173.64 456.178 176.699 459.435 179.714 462.69C192.652 476.654 204.82 490.602 213.523 505.021C222.217 519.427 227.392 534.204 226.468 549.84L226.468 549.841C224.853 577.293 230.294 602.15 237.484 626.5C239.825 634.426 242.343 642.278 244.866 650.145C250.119 666.523 255.392 682.965 259.126 700.275C259.742 703.165 259.281 706.672 257.852 710.754C256.429 714.822 254.092 719.331 251.119 724.161C245.623 733.093 238.078 742.933 230.445 752.888C229.815 753.71 229.184 754.533 228.553 755.357C220.323 766.103 212.176 776.911 206.778 786.602C204.077 791.45 202.025 796.088 201.005 800.355C199.985 804.622 199.969 808.643 201.508 812.147L201.511 812.154C208.681 828.274 222.81 840.306 240.89 849.367C258.971 858.428 281.133 864.585 304.598 868.895C343.054 875.958 385.265 878.101 419.139 879.82C426.589 880.198 433.635 880.555 440.149 880.94C471.312 882.82 502.494 879.811 533.183 874.762L533.188 874.761C573.69 867.978 613.404 853.125 641.44 829.202C669.537 805.227 685.889 772.138 679.484 729.162C673.648 689.366 670.859 658.101 685.359 627.745C691.722 614.667 701.017 601.552 714.973 588.261L714.983 588.252L714.992 588.243C728.186 575.235 742.817 563.642 757.47 552.031C758.081 551.547 758.693 551.062 759.304 550.578C774.544 538.498 789.739 526.337 803.128 512.566C821.933 493.391 838.134 467.551 832.443 441.303Z" stroke="#FFE7AD" stroke-width="3" stroke-miterlimit="10"/>
<path d="M282.539 102.705C282.06 102.86 281.642 103.01 281.224 103.159C280.806 103.309 280.387 103.459 279.908 103.614L678.813 323.066M282.539 102.705C347.94 81.1843 437.242 100.054 466.733 128.653M282.539 102.705L282.058 101.281C282.06 101.28 282.063 101.279 282.066 101.279L282.539 102.705ZM466.733 128.653C483.7 145.08 489.07 163.654 494.454 182.273C498.512 196.308 502.577 210.368 511.622 223.552M466.733 128.653L467.773 127.583C467.773 127.582 467.773 127.582 467.773 127.582L466.733 128.653ZM511.622 223.552C517.292 231.651 523.635 239 530.915 245.81C563.361 276.187 611.288 295.587 653.639 312.728C662.325 316.244 670.777 319.665 678.813 323.066M511.622 223.552L512.858 222.713C512.857 222.712 512.856 222.71 512.855 222.708C512.853 222.706 512.851 222.704 512.85 222.701L511.622 223.552ZM678.813 323.066L679.388 321.687C679.387 321.687 679.386 321.687 679.386 321.686L678.813 323.066ZM177.682 835.392C185.324 852.633 200.456 865.495 219.849 875.175C239.244 884.856 263.032 891.423 288.219 896.012C329.287 903.494 374.33 905.758 410.497 907.576C418.676 907.987 426.401 908.375 433.523 908.795L433.525 908.796C466.91 910.724 500.54 907.517 533.173 902.077L533.173 902.077C576.593 894.826 619.118 878.992 649.102 853.406C679.149 827.766 696.581 792.331 689.639 746.161C683.33 703.872 680.574 670.284 696.112 637.758C702.876 623.729 712.841 609.863 727.703 595.564C741.647 582.266 756.957 570.36 772.294 558.433C773.368 557.598 774.442 556.763 775.516 555.928C791.9 543.174 808.202 530.288 822.621 515.622L177.682 835.392ZM179.053 834.796L177.682 835.392L179.053 834.796ZM239.997 715.495C239.998 715.496 239.998 715.497 239.998 715.497C239.998 715.498 239.998 715.498 239.998 715.498L241.465 715.194L239.997 715.495ZM205.113 554.132C205.113 554.132 205.113 554.133 205.113 554.133L206.612 554.237L205.113 554.132ZM182.586 287.415C182.584 287.417 182.582 287.419 182.58 287.422C182.579 287.423 182.577 287.424 182.576 287.426L183.698 288.432L182.586 287.415ZM227.562 135.65C227.56 135.652 227.558 135.654 227.556 135.656C227.555 135.657 227.554 135.658 227.553 135.659L228.635 136.708L227.562 135.65Z" stroke="#FFE7AD" stroke-width="3" stroke-miterlimit="10"/>
<path d="M842.116 518.675L842.117 518.674C863.877 496.716 882.488 467.441 876.223 437.535L876.222 437.53C868.978 403.598 836.244 378.228 798.778 358.451C772.257 344.451 743.017 333.088 718.195 323.441C707.901 319.441 698.366 315.735 690.101 312.259C681.216 308.488 671.876 304.71 662.283 300.83C644.62 293.686 626.103 286.195 608.003 277.764C580.103 264.767 553.416 249.626 532.823 230.312L532.815 230.305C525.076 223.142 518.284 215.462 512.649 207.02L512.645 207.013L512.64 207.006C503.148 193.126 498.902 178.425 494.594 163.511C493.877 161.03 493.158 158.543 492.414 156.053C487.21 138.651 480.758 121.277 464.519 105.641C448.487 90.0536 416.435 77.3557 379.86 71.373C343.22 65.3798 301.703 66.0679 266.553 77.5608L266.524 77.5701C265.608 77.8658 264.622 78.1839 263.861 78.4901C237.531 87.6507 221.518 100.891 208.545 114.07L208.544 114.071C169.065 154.24 144.688 206.531 166.127 260.67C167.742 264.963 165.842 269.872 160.294 275.554L160.28 275.569L160.266 275.584C154.174 282.186 144.314 289.26 132.925 296.574C126.352 300.796 119.357 305.044 112.34 309.305C107.185 312.436 102.018 315.573 96.9989 318.712C85.2233 326.077 74.3384 333.404 66.8355 340.414C63.0846 343.919 60.1043 347.411 58.2927 350.86C56.472 354.325 55.7803 357.852 56.8121 361.304C62.1314 379.148 73.1627 395.942 86.5213 412.177C96.7256 424.578 108.359 436.734 119.923 448.817C123.49 452.544 127.05 456.265 130.56 459.983C145.485 475.796 159.516 491.594 169.526 507.941C179.526 524.273 185.449 541.051 184.292 558.838L184.292 558.84C182.295 590.261 188.495 618.703 196.744 646.556C199.458 655.719 202.386 664.796 205.319 673.892C211.328 692.521 217.36 711.224 221.627 730.886C222.345 734.224 221.792 738.262 220.125 742.939C218.463 747.602 215.741 752.767 212.288 758.293C205.911 768.501 197.165 779.75 188.327 791.116C187.589 792.066 186.85 793.016 186.112 793.967C176.572 806.252 167.144 818.588 160.904 829.631C157.782 835.155 155.417 840.426 154.246 845.263C153.075 850.098 153.068 854.627 154.836 858.553C163.013 876.907 179.176 890.58 199.895 900.86C220.617 911.141 246.029 918.096 272.935 922.949C316.1 930.735 363.364 933.152 401.655 935.111C411.085 935.593 419.971 936.047 428.117 936.547C463.751 938.757 499.589 935.369 534.408 929.52C580.622 921.81 625.957 904.996 657.951 877.771C690.008 850.493 708.652 812.761 701.306 763.5L701.305 763.497C694.502 718.479 691.801 682.796 708.157 648.347C715.326 633.367 725.959 618.754 741.741 603.684L741.749 603.676L741.757 603.669C756.822 588.851 773.682 575.686 790.633 562.451L791.911 561.454C809.267 547.901 826.669 534.231 842.116 518.675Z" stroke="#FFE7AD" stroke-width="3" stroke-miterlimit="10"/>
<path d="M711.71 780.674L711.71 780.672C706.497 746.398 703.566 717.311 708.762 690.176C713.946 663.11 727.244 637.869 754.734 611.385C770.594 596.12 788.179 582.495 805.829 568.819C806.661 568.174 807.493 567.529 808.325 566.885C826.785 552.574 845.227 538.124 861.58 521.683C884.702 498.457 904.64 467.453 897.939 435.497C890.385 399.502 855.587 372.564 815.728 351.568C787.516 336.708 756.416 324.655 730.061 314.442C719.129 310.205 709.013 306.285 700.259 302.612C690.881 298.652 681.017 294.682 670.886 290.603C646.673 280.857 620.931 270.494 596.631 258.187C562.181 240.739 530.903 219.508 511.341 190.897L511.34 190.895C501.229 176.152 496.688 160.518 492.085 144.665C491.326 142.052 490.565 139.434 489.778 136.812C484.229 118.339 477.37 99.8997 460.177 83.301C442.937 66.6563 408.268 53.0163 368.825 46.7484C329.321 40.4709 284.681 41.5302 247.319 54.6028C219.304 64.3622 202.12 78.3939 188.464 92.3347C146.477 134.798 120.663 190.216 143.136 247.51C144.346 250.626 143.694 254.103 141.201 258.068C138.699 262.046 134.465 266.302 128.956 270.774C117.946 279.712 102.245 289.199 86.3378 298.782L85.7587 299.13C70.1004 308.563 54.3014 318.081 42.9393 327.143C37.1909 331.727 32.4856 336.266 29.5057 340.695C26.5273 345.121 25.1364 349.651 26.4671 354.069C32.1275 372.929 43.8823 390.691 58.1269 407.876C68.9865 420.977 81.3656 433.825 93.6767 446.601C97.5065 450.576 101.33 454.544 105.098 458.51C121.021 475.268 135.995 492.023 146.678 509.366C157.352 526.694 163.677 544.507 162.437 563.398L162.437 563.399C160.252 596.802 166.804 627.067 175.557 656.701C178.465 666.545 181.606 676.297 184.754 686.067C191.109 705.789 197.487 725.586 202.011 746.369C202.78 749.933 202.185 754.241 200.401 759.224C198.623 764.191 195.713 769.692 192.026 775.576C185.184 786.491 175.791 798.529 166.31 810.68C165.563 811.638 164.815 812.596 164.068 813.555C153.876 826.63 143.803 839.749 137.121 851.475C133.779 857.339 131.243 862.927 129.976 868.043C128.709 873.156 128.679 877.932 130.528 882.058C139.179 901.533 156.361 916.035 178.414 926.931C200.469 937.829 227.53 945.189 256.174 950.319C301.899 958.508 351.91 961.048 392.397 963.105C402.618 963.624 412.232 964.113 421.016 964.653L421.02 964.654C459.122 966.89 497.407 963.302 534.412 957.041C583.41 948.754 631.61 930.894 665.64 901.999C699.734 873.049 719.587 833.018 711.71 780.674Z" stroke="#FFE7AD" stroke-width="3" stroke-miterlimit="10"/>
</svg>
